Coordinates
version=1
nRows=9
nColumns=24
inDegrees=yes

Units are S.I. units (second, meters, Newtons, ...)
Angles are in degrees.

endheader
time	pelvis_tilt	pelvis_list	pelvis_rotation	pelvis_tx	pelvis_ty	pelvis_tz	hip_flexion_r	hip_adduction_r	hip_rotation_r	knee_angle_r	ankle_angle_r	subtalar_angle_r	mtp_angle_r	hip_flexion_l	hip_adduction_l	hip_rotation_l	knee_angle_l	ankle_angle_l	subtalar_angle_l	mtp_angle_l	lumbar_extension	lumbar_bending	lumbar_rotation
      5.63500000	     11.86616370	     -5.25873487	     -9.37981767	      1.56515034	      0.72437013	     -0.23901036	    -30.29839447	      1.36040700	     -5.17992863	    -15.69109856	     33.66918424	     27.48136306	      0.00000000	     18.25183309	     -2.37820244	     -6.54136788	    -14.22490928	     18.52936444	      3.05447490	      0.00000000	    -31.27104295	      5.72307923	     13.75332363
      5.64000000	     11.88198205	     -4.78004514	     -9.50198608	      1.57367874	      0.72433504	     -0.23909545	    -30.20247291	      0.61706346	     -5.21722481	    -17.08031309	     32.85816005	     27.59960862	      0.00000000	     18.26462410	     -1.80223669	     -6.58647205	    -15.23059621	     17.74727673	      2.15720398	      0.00000000	    -31.03965273	      5.17983887	     13.58561907
      5.64500000	     11.89514879	     -4.29649848	     -9.54816074	      1.58220864	      0.72440584	     -0.23928449	    -30.04022799	     -0.09840520	     -5.29780268	    -18.56783036	     31.80941821	     27.77070423	      0.00000000	     18.27623354	     -1.19457489	     -6.51202122	    -16.26168877	     16.93156080	      1.19941430	      0.00000000	    -30.80285065	      4.67809949	     13.35050772
      5.65000000	     11.91618638	     -3.77652763	     -9.59417376	      1.59071007	      0.72458329	     -0.23944707	    -29.80259502	     -0.83361401	     -5.31683635	    -20.17237552	     30.66983171	     27.73830539	      0.00000000	     18.28604135	     -0.57221888	     -6.57403978	    -17.34166262	     16.16120565	      0.41725418	      0.00000000	    -30.57183803	      4.12965073	     13.14082788
      5.65500000	     11.93076765	     -3.25924638	     -9.58374286	      1.59918165	      0.72486247	     -0.23968239	    -29.48598530	     -1.53899403	     -5.36353213	    -21.87702615	     29.30888821	     27.70628676	      0.00000000	     18.29068137	      0.06204123	     -6.56407884	    -18.41922691	     15.42309747	     -0.34906848	      0.00000000	    -30.34082637	      3.61322442	     12.91270609
      5.66000000	     11.94553987	     -2.73197507	     -9.54639709	      1.60760445	      0.72524447	     -0.23994790	    -29.08854560	     -2.23692675	     -5.40882449	    -23.68209404	     27.79811775	     27.59641328	      0.00000000	     18.27702124	      0.70592851	     -6.56930809	    -19.47736213	     14.76336946	     -1.01048639	      0.00000000	    -30.11768261	      3.10234510	     12.68085484
      5.66500000	     11.95799837	     -2.20101734	     -9.48080486	      1.61596990	      0.72571804	     -0.24023945	    -28.60995140	     -2.92127091	     -5.45865647	    -25.58001237	     26.13408437	     27.40543471	      0.00000000	     18.24267047	      1.35356315	     -6.58280574	    -20.50029081	     14.20647370	     -1.56089453	      0.00000000	    -29.90355620	      2.59846550	     12.45757168
      5.67000000	     11.97216930	     -1.65956096	     -9.39721901	      1.62427584	      0.72629275	     -0.24053607	    -28.05666491	     -3.59913981	     -5.48686442	    -27.55251062	     24.33690185	     27.10489279	      0.00000000	     18.16706829	      2.00681611	     -6.63345417	    -21.45066006	     13.76304250	     -1.95043661	      0.00000000	    -29.70146585	      2.09355195	     12.21224837
      5.67500000	     11.95777240	     -1.12651814	     -9.30263659	      1.63250098	      0.72690560	     -0.24088179	    -27.38750940	     -4.27032342	     -5.54967709	    -29.61219507	     22.46978650	     26.72617332	      0.00000000	     18.09074815	      2.65975959	     -6.63983330	    -22.34888639	     13.45917122	     -2.34216344	      0.00000000	    -29.48645850	      1.60625435	     12.03751181
